<svg width="40" height="40" viewBox="0 0 40 40" fill="none" xmlns="http://www.w3.org/2000/svg">
<path d="M26.8994 3.5606C26.8194 4.0606 26.7794 4.5606 26.7794 5.0606C26.7794 9.5606 30.4194 13.1986 34.8994 13.1986C35.3994 13.1986 35.8794 13.1406 36.3794 13.0606V29.1986C36.3794 35.9806 32.3794 40.0006 25.5794 40.0006H10.8014C3.99939 40.0006 -0.000610352 35.9806 -0.000610352 29.1986V14.4006C-0.000610352 7.6006 3.99939 3.5606 10.8014 3.5606H26.8994ZM27.3014 15.7206C26.7594 15.6606 26.2214 15.9006 25.8994 16.3406L21.0614 22.6006L15.5194 18.2406C15.1794 17.9806 14.7794 17.8786 14.3794 17.9206C13.9814 17.9806 13.6214 18.1986 13.3794 18.5186L7.46139 26.2206L7.33939 26.4006C6.99939 27.0386 7.15939 27.8586 7.75939 28.3006C8.03939 28.4806 8.33939 28.6006 8.67939 28.6006C9.14139 28.6206 9.57939 28.3786 9.85939 28.0006L14.8794 21.5386L20.5794 25.8206L20.7594 25.9386C21.3994 26.2786 22.1994 26.1206 22.6594 25.5186L28.4394 18.0606L28.3594 18.1006C28.6794 17.6606 28.7394 17.1006 28.5194 16.6006C28.3014 16.1006 27.8194 15.7606 27.3014 15.7206ZM35.1796 0C37.8396 0 39.9996 2.16 39.9996 4.82C39.9996 7.48 37.8396 9.64 35.1796 9.64C32.5196 9.64 30.3596 7.48 30.3596 4.82C30.3596 2.16 32.5196 0 35.1796 0Z" fill="#FACC15"/>
</svg>
